<svg width="27" height="24" viewBox="0 0 27 24" fill="none" xmlns="http://www.w3.org/2000/svg">
<path d="M22.9729 17.5121H13.5V22.8035H22.9729V17.5121Z" fill="url(#paint0_linear_106_13229)"/>
<path d="M1.76273 18.8581L6.49919 10.6967L11.1067 13.3459L6.37021 21.5002L1.76273 18.8581Z" fill="url(#paint1_linear_106_13229)"/>
<path d="M15.8718 2.68481L20.6083 10.8462L15.9936 13.4884L11.2572 5.33407L15.8718 2.68481Z" fill="url(#paint2_linear_106_13229)"/>
<path d="M4.02706 22.7964C5.49528 22.7964 6.6855 21.6134 6.6855 20.1542C6.6855 18.695 5.49528 17.5121 4.02706 17.5121C2.55885 17.5121 1.36862 18.695 1.36862 20.1542C1.36862 21.6134 2.55885 22.7964 4.02706 22.7964Z" fill="#F89090"/>
<path d="M8.82085 14.6421C10.2891 14.6421 11.4793 13.4591 11.4793 11.9999C11.4793 10.5407 10.2891 9.35779 8.82085 9.35779C7.35264 9.35779 6.16241 10.5407 6.16241 11.9999C6.16241 13.4591 7.35264 14.6421 8.82085 14.6421Z" fill="#F89090"/>
<path d="M18.2221 14.6421C19.6903 14.6421 20.8806 13.4591 20.8806 11.9999C20.8806 10.5407 19.6903 9.35779 18.2221 9.35779C16.7539 9.35779 15.5637 10.5407 15.5637 11.9999C15.5637 13.4591 16.7539 14.6421 18.2221 14.6421Z" fill="#7101FF"/>
<path d="M22.9801 22.7964C24.4483 22.7964 25.6385 21.6134 25.6385 20.1542C25.6385 18.695 24.4483 17.5121 22.9801 17.5121C21.5119 17.5121 20.3217 18.695 20.3217 20.1542C20.3217 21.6134 21.5119 22.7964 22.9801 22.7964Z" fill="#6DD8FC"/>
<path d="M13.5 22.7964C14.9682 22.7964 16.1584 21.6134 16.1584 20.1542C16.1584 18.695 14.9682 17.5121 13.5 17.5121C12.0318 17.5121 10.8416 18.695 10.8416 20.1542C10.8416 21.6134 12.0318 22.7964 13.5 22.7964Z" fill="#6DD8FC"/>
<path d="M13.5 6.48068C14.9682 6.48068 16.1584 5.29776 16.1584 3.83855C16.1584 2.37934 14.9682 1.19641 13.5 1.19641C12.0318 1.19641 10.8416 2.37934 10.8416 3.83855C10.8416 5.29776 12.0318 6.48068 13.5 6.48068Z" fill="#7101FF"/>
<defs>
<linearGradient id="paint0_linear_106_13229" x1="13.5418" y1="20.1569" x2="21.7985" y2="20.1569" gradientUnits="userSpaceOnUse">
<stop offset="0.00123855" stop-color="#6DD8FC"/>
<stop offset="0.7693" stop-color="#6DD8FC" stop-opacity="0"/>
</linearGradient>
<linearGradient id="paint1_linear_106_13229" x1="8.78408" y1="12.0696" x2="4.69372" y2="19.1978" gradientUnits="userSpaceOnUse">
<stop stop-color="#F89090"/>
<stop offset="0.8674" stop-color="#F89090" stop-opacity="0"/>
</linearGradient>
<linearGradient id="paint2_linear_106_13229" x1="18.2707" y1="12.124" x2="14.1804" y2="4.99573" gradientUnits="userSpaceOnUse">
<stop stop-color="#7101FF"/>
<stop offset="0.8204" stop-color="#7101FF" stop-opacity="0"/>
</linearGradient>
</defs>
</svg>
