<svg width="377" height="337" viewBox="0 0 377 337" fill="none" xmlns="http://www.w3.org/2000/svg">
<path d="M320.6 245.9H188.4V320.2H320.6V245.9Z" fill="url(#paint0_linear_5192_1458)"/>
<path d="M24.6001 264.8L90.7001 150.2L155 187.4L88.9001 301.9L24.6001 264.8Z" fill="url(#paint1_linear_5192_1458)"/>
<path d="M221.5 37.7L287.6 152.3L223.2 189.4L157.1 74.9L221.5 37.7Z" fill="url(#paint2_linear_5192_1458)"/>
<path d="M56.2001 320.1C76.6899 320.1 93.3001 303.49 93.3001 283C93.3001 262.51 76.6899 245.9 56.2001 245.9C35.7103 245.9 19.1001 262.51 19.1001 283C19.1001 303.49 35.7103 320.1 56.2001 320.1Z" fill="black"/>
<path d="M123.1 205.6C143.59 205.6 160.2 188.99 160.2 168.5C160.2 148.01 143.59 131.4 123.1 131.4C102.61 131.4 86 148.01 86 168.5C86 188.99 102.61 205.6 123.1 205.6Z" fill="black"/>
<path d="M254.3 205.6C274.79 205.6 291.4 188.99 291.4 168.5C291.4 148.01 274.79 131.4 254.3 131.4C233.81 131.4 217.2 148.01 217.2 168.5C217.2 188.99 233.81 205.6 254.3 205.6Z" fill="black"/>
<path d="M320.7 320.1C341.19 320.1 357.8 303.49 357.8 283C357.8 262.51 341.19 245.9 320.7 245.9C300.21 245.9 283.6 262.51 283.6 283C283.6 303.49 300.21 320.1 320.7 320.1Z" fill="black"/>
<path d="M188.4 320.1C208.89 320.1 225.5 303.49 225.5 283C225.5 262.51 208.89 245.9 188.4 245.9C167.91 245.9 151.3 262.51 151.3 283C151.3 303.49 167.91 320.1 188.4 320.1Z" fill="black"/>
<path d="M188.4 91C208.89 91 225.5 74.3898 225.5 53.9C225.5 33.4102 208.89 16.8 188.4 16.8C167.91 16.8 151.3 33.4102 151.3 53.9C151.3 74.3898 167.91 91 188.4 91Z" fill="black"/>
<defs>
<linearGradient id="paint0_linear_5192_1458" x1="188.984" y1="283.038" x2="304.21" y2="283.038" gradientUnits="userSpaceOnUse">
<stop/>
<stop offset="0.8204" stop-opacity="0"/>
</linearGradient>
<linearGradient id="paint1_linear_5192_1458" x1="122.587" y1="169.478" x2="64.9737" y2="269.264" gradientUnits="userSpaceOnUse">
<stop/>
<stop offset="0.8204" stop-opacity="0"/>
</linearGradient>
<linearGradient id="paint2_linear_5192_1458" x1="254.978" y1="170.241" x2="197.365" y2="70.455" gradientUnits="userSpaceOnUse">
<stop/>
<stop offset="0.8204" stop-opacity="0"/>
</linearGradient>
</defs>
</svg>
