<svg width="456" height="548" viewBox="0 0 456 548" fill="none" xmlns="http://www.w3.org/2000/svg">
<path d="M1.47412 369.803L228.01 547.208L454.548 369.803L228.003 341.638L1.47412 369.803Z" fill="#99BCE3"/>
<path d="M228 0L0 177.396L226.53 205.563L456 177.405L228 0Z" fill="#19486F"/>
<path d="M228 0L0 113.272V177.405L228 109.442V0Z" fill="#1F5B99"/>
<path d="M0 433.93L228 547.201V437.758L0 369.805V433.93Z" fill="#1F5B99"/>
<path d="M227.997 356.343L129.197 341.871V206.43L227.997 192.18L230.329 196.69L230.083 351.835L227.997 356.343Z" fill="#1F5B99"/>
<path d="M228 0V109.442L456 177.405V113.272L228 0Z" fill="#5294CF"/>
<path d="M228 437.758V547.201L456 433.93V369.805L228 437.758Z" fill="#5294CF"/>
<path d="M228 356.343L326.801 341.871V206.43L228 192.18V356.343Z" fill="#5294CF"/>
</svg>
