<svg width="456" height="551" viewBox="0 0 456 551" fill="none" xmlns="http://www.w3.org/2000/svg">
<path d="M0 436.873L29.0736 451.409L33.8438 442.94V105.687L29.0736 99.4629L0 114V436.873Z" fill="#9D5025"/>
<path d="M84.9264 113.234L29.0735 99.4629V451.409L84.9264 438.403V113.234Z" fill="#F68536"/>
<path d="M256.31 140.013L296.094 119.355L428.457 170.616L393.263 175.207L256.31 140.013Z" fill="#6B3A19"/>
<path d="M257.839 410.861L296.859 431.518L429.221 380.257L394.027 375.665L257.839 410.861Z" fill="#FBBF93"/>
<path d="M267.786 354.241L337.41 363.423L341.407 356.25V195.938L337.41 187.45L267.786 196.631V354.241Z" fill="#9D5025"/>
<path d="M63.5032 81.8655L106.349 60.4424L111.03 69.468V480.937L106.349 490.429L63.5032 469.006V81.8655Z" fill="#9D5025"/>
<path d="M193.571 461.355L106.35 489.663V60.4424L193.571 88.7518V461.355Z" fill="#F68536"/>
<path d="M159.906 516.443L228 550.873L235.125 542.688V10.0943L228 0L159.906 34.4298V516.443Z" fill="#9D5025"/>
<path d="M391.731 175.207L426.926 170.617L429.949 175.008V375.844L426.926 381.02L391.731 376.43V175.207Z" fill="#9D5025"/>
<path d="M337.41 187.45V364.188L410.094 275.437L337.41 187.45Z" fill="#F68536"/>
<path d="M426.926 99.4632L228 0V550.873L456 436.873V114L426.926 99.4632ZM426.926 381.287L296.094 420.361V130.512L426.926 169.586V381.287Z" fill="#F68536"/>
</svg>
