<svg width="456" height="551" viewBox="0 0 456 551" fill="none" xmlns="http://www.w3.org/2000/svg">
<path d="M76.1679 435.5L22.877 447.658V102.533L76.1679 114.715V435.5Z" fill="#F68536"/>
<path d="M142.639 455.87L76.1494 474.765V75.8984L142.639 94.7706V455.87Z" fill="#F68536"/>
<path d="M227.932 476.815L142.64 508.03V42.666L227.932 73.8661V476.815Z" fill="#F68536"/>
<path d="M456.002 436.543L227.944 550.572V0L456.002 114.029V436.543Z" fill="#F68536"/>
<path d="M182.468 22.7339L227.928 0V550.572L182.468 527.846V22.7339Z" fill="#9D5025"/>
<path d="M107.459 60.2337L142.651 42.6387V507.919L107.459 490.324V60.2337Z" fill="#9D5025"/>
<path d="M48.1216 89.915L76.1546 75.8984V474.681L48.1216 460.656V89.915Z" fill="#9D5025"/>
<path d="M22.8639 102.533L0 113.965V436.608L22.8639 448.032V102.533Z" fill="#9D5025"/>
</svg>
