<svg width="24" height="24" viewBox="0 0 24 24" fill="none" xmlns="http://www.w3.org/2000/svg">
<rect x="1" y="1" width="22" height="22" rx="3" stroke="#2A8265" stroke-width="2"/>
<mask id="mask0_2585_20581" style="mask-type:alpha" maskUnits="userSpaceOnUse" x="5" y="5" width="14" height="14">
<rect x="5" y="5" width="14" height="14" fill="#20A791"/>
</mask>
<g mask="url(#mask0_2585_20581)">
<path d="M11.9958 18.4164C10.907 18.4164 9.90556 18.1685 8.99167 17.6727C8.07778 17.1768 7.32917 16.5157 6.74584 15.6893V17.2498H5.57917V13.7498H9.07917V14.9164H7.63542C8.10209 15.6164 8.71702 16.1803 9.48022 16.6081C10.2434 17.0359 11.082 17.2498 11.9958 17.2498C12.725 17.2498 13.408 17.1112 14.0448 16.8341C14.6816 16.5571 15.2358 16.1828 15.7073 15.7112C16.1788 15.2397 16.5531 14.6855 16.8302 14.0487C17.1073 13.4119 17.2458 12.7289 17.2458 11.9998H18.4125C18.4125 12.8845 18.2448 13.7157 17.9094 14.4935C17.574 15.2713 17.1146 15.9518 16.5313 16.5352C15.9479 17.1185 15.2674 17.5779 14.4896 17.9133C13.7118 18.2487 12.8806 18.4164 11.9958 18.4164ZM11.4708 16.0831V15.3248C11.0139 15.2178 10.642 15.0209 10.3552 14.7341C10.0684 14.4473 9.85695 14.0706 9.72084 13.6039L10.6833 13.2248C10.8 13.6234 10.9823 13.9223 11.2302 14.1216C11.4781 14.3209 11.7625 14.4206 12.0833 14.4206C12.4042 14.4206 12.6788 14.3453 12.9073 14.1946C13.1358 14.0439 13.25 13.8081 13.25 13.4873C13.25 13.2053 13.1309 12.9768 12.8927 12.8018C12.6545 12.6268 12.2292 12.4275 11.6167 12.2039C11.0431 11.9998 10.6226 11.7567 10.3552 11.4748C10.0879 11.1928 9.95417 10.8234 9.95417 10.3664C9.95417 9.96782 10.0927 9.60567 10.3698 9.27997C10.6469 8.95428 11.0236 8.74282 11.5 8.6456V7.91643H12.5208V8.6456C12.8708 8.67477 13.1892 8.81574 13.476 9.06852C13.7629 9.32129 13.9597 9.61782 14.0667 9.9581L13.1333 10.3373C13.0556 10.1137 12.9292 9.9265 12.7542 9.77581C12.5792 9.62511 12.3361 9.54977 12.025 9.54977C11.6847 9.54977 11.4247 9.62268 11.2448 9.76852C11.0649 9.91435 10.975 10.1137 10.975 10.3664C10.975 10.6192 11.0868 10.8185 11.3104 10.9643C11.534 11.1102 11.9375 11.2803 12.5208 11.4748C13.2208 11.7275 13.6875 12.0241 13.9208 12.3643C14.1542 12.7046 14.2708 13.0789 14.2708 13.4873C14.2708 13.7692 14.2222 14.0171 14.125 14.231C14.0278 14.4449 13.899 14.6272 13.7385 14.7779C13.5781 14.9286 13.391 15.0501 13.1771 15.1425C12.9632 15.2348 12.7347 15.3053 12.4917 15.3539V16.0831H11.4708ZM5.57917 11.9998C5.57917 11.115 5.74688 10.2838 6.0823 9.50602C6.41772 8.72824 6.87709 8.04768 7.46042 7.46435C8.04376 6.88102 8.72431 6.42164 9.50209 6.08622C10.2799 5.75081 11.1111 5.5831 11.9958 5.5831C13.0847 5.5831 14.0861 5.83102 15 6.32685C15.9139 6.82268 16.6625 7.48379 17.2458 8.31018V6.74977H18.4125V10.2498H14.9125V9.0831H16.3563C15.8896 8.3831 15.2747 7.81921 14.5115 7.39143C13.7483 6.96365 12.9097 6.74977 11.9958 6.74977C11.2667 6.74977 10.5837 6.88831 9.94688 7.16539C9.31008 7.44247 8.75591 7.81678 8.28438 8.28831C7.81285 8.75984 7.43855 9.314 7.16147 9.95081C6.88438 10.5876 6.74584 11.2706 6.74584 11.9998H5.57917Z" fill="#2A8265"/>
</g>
</svg>
