<svg width="24" height="24" viewBox="0 0 24 24" fill="none" xmlns="http://www.w3.org/2000/svg">
<path d="M12 2.5C17.2467 2.5 21.5 6.7533 21.5 12C21.5 17.2467 17.2467 21.5 12 21.5C6.7533 21.5 2.5 17.2467 2.5 12C2.5 6.7533 6.7533 2.5 12 2.5Z" fill="#7101FF"/>
<path d="M12 2.5C17.2467 2.5 21.5 6.7533 21.5 12C21.5 17.2467 17.2467 21.5 12 21.5C6.7533 21.5 2.5 17.2467 2.5 12C2.5 6.7533 6.7533 2.5 12 2.5Z" stroke="#7101FF"/>
<mask id="mask0_2585_20577" style="mask-type:alpha" maskUnits="userSpaceOnUse" x="6" y="6" width="12" height="12">
<rect x="6" y="6" width="12" height="12" fill="#D9D9D9"/>
</mask>
<g mask="url(#mask0_2585_20577)">
<path d="M14.8 14.9999L10 10.1999V14.4999H9V8.49988H15V9.49988H10.7L15.5 14.2999L14.8 14.9999Z" fill="white"/>
</g>
</svg>
