<svg width="24" height="24" viewBox="0 0 24 24" fill="none" xmlns="http://www.w3.org/2000/svg">
<mask id="mask0_2982_3603" style="mask-type:alpha" maskUnits="userSpaceOnUse" x="0" y="0" width="24" height="24">
<rect width="24" height="24" fill="#D9D9D9"/>
</mask>
<g mask="url(#mask0_2982_3603)">
<path d="M5.99963 22C5.44963 22 4.9788 21.8042 4.58713 21.4125C4.19547 21.0208 3.99963 20.55 3.99963 20V4C3.99963 3.45 4.19547 2.97917 4.58713 2.5875C4.9788 2.19583 5.44963 2 5.99963 2H13.9996L19.9996 8V20C19.9996 20.55 19.8038 21.0208 19.4121 21.4125C19.0205 21.8042 18.5496 22 17.9996 22H5.99963Z" fill="white" fill-opacity="0.9"/>
<path d="M5.99963 22C5.44963 22 4.9788 21.8042 4.58713 21.4125C4.19547 21.0208 3.99963 20.55 3.99963 20V4C3.99963 3.45 4.19547 2.97917 4.58713 2.5875C4.9788 2.19583 5.44963 2 5.99963 2H13.9996L19.9996 8V20C19.9996 20.55 19.8038 21.0208 19.4121 21.4125C19.0205 21.8042 18.5496 22 17.9996 22H5.99963ZM10.9996 19H12.9996V18H13.9996C14.283 18 14.5205 17.9042 14.7121 17.7125C14.9038 17.5208 14.9996 17.2833 14.9996 17V14C14.9996 13.7167 14.9038 13.4792 14.7121 13.2875C14.5205 13.0958 14.283 13 13.9996 13H10.9996V12H14.9996V10H12.9996V9H10.9996V10H9.99963C9.7163 10 9.4788 10.0958 9.28713 10.2875C9.09547 10.4792 8.99963 10.7167 8.99963 11V14C8.99963 14.2833 9.09547 14.5208 9.28713 14.7125C9.4788 14.9042 9.7163 15 9.99963 15H12.9996V16H8.99963V18H10.9996V19ZM13.1746 8H17.1746L13.1746 4V8Z" fill="#FF9900"/>
</g>
</svg>
