<svg width="24" height="24" viewBox="0 0 24 24" fill="none" xmlns="http://www.w3.org/2000/svg">
<rect x="1" y="1" width="22" height="22" rx="3" stroke="#FF9900" stroke-width="2"/>
<mask id="mask0_2585_20582" style="mask-type:alpha" maskUnits="userSpaceOnUse" x="3" y="3" width="18" height="18">
<rect x="3" y="3" width="18" height="18" fill="#D9D9D9"/>
</mask>
<g mask="url(#mask0_2585_20582)">
<path d="M11.2689 18.75V17.1375C10.6064 16.9875 10.0345 16.7 9.55323 16.275C9.07198 15.85 8.71886 15.25 8.49386 14.475L9.88136 13.9125C10.0689 14.5125 10.347 14.9688 10.7157 15.2812C11.0845 15.5938 11.5689 15.75 12.1689 15.75C12.6814 15.75 13.1157 15.6344 13.472 15.4031C13.8282 15.1719 14.0064 14.8125 14.0064 14.325C14.0064 13.8875 13.8689 13.5406 13.5939 13.2844C13.3189 13.0281 12.6814 12.7375 11.6814 12.4125C10.6064 12.075 9.86886 11.6719 9.46886 11.2031C9.06886 10.7344 8.86886 10.1625 8.86886 9.4875C8.86886 8.675 9.13136 8.04375 9.65636 7.59375C10.1814 7.14375 10.7189 6.8875 11.2689 6.825V5.25H12.7689V6.825C13.3939 6.925 13.9095 7.15313 14.3157 7.50938C14.722 7.86563 15.0189 8.3 15.2064 8.8125L13.8189 9.4125C13.6689 9.0125 13.4564 8.7125 13.1814 8.5125C12.9064 8.3125 12.5314 8.2125 12.0564 8.2125C11.5064 8.2125 11.0876 8.33437 10.8001 8.57812C10.5126 8.82188 10.3689 9.125 10.3689 9.4875C10.3689 9.9 10.5564 10.225 10.9314 10.4625C11.3064 10.7 11.9564 10.95 12.8814 11.2125C13.7439 11.4625 14.397 11.8594 14.8407 12.4031C15.2845 12.9469 15.5064 13.575 15.5064 14.2875C15.5064 15.175 15.2439 15.85 14.7189 16.3125C14.1939 16.775 13.5439 17.0625 12.7689 17.175V18.75H11.2689Z" fill="#FF9900"/>
</g>
</svg>
